#Comment line ignore any data following # character 
#Hierarchical Translation and Rotation (.htr) file 
[Header]	
#Header keywords are followed by a single value 
FileType HTR		#Single word string
DataType HTRS		#Translation followed by rotation and scale data
FileVersion 1		#integer
NumSegments 64		#integer
NumFrames 3		#integer
DataFrameRate 30		#integer, data frame rate in this file
EulerRotationOrder ZYX
CalibrationUnits mm
RotationUnits Degrees
GlobalAxisofGravity Y
BoneLengthAxis Y
ScaleFactor 1.00
[SegmentNames&Hierarchy]
#CHILD	PARENT
Pinger_Root GLOBAL
Pelvis Pinger_Root
L_Hip Pelvis
R_Hip Pelvis
Rear_Leg01 Pelvis
Spine1 Pelvis
L_Leg01 L_Hip
L_Leg02 L_Leg01
L_Leg03 L_Leg02
L_Foot L_Leg03
L_Toe1_01 L_Foot
L_Toe2_01 L_Foot
L_Toe3_01 L_Foot
planeAlignerLeft L_Foot
L_Toe1_02 L_Toe1_01
L_Toe1_03 L_Toe1_02
L_Toe2_02 L_Toe2_01
L_Toe2_03 L_Toe2_02
L_Toe3_02 L_Toe3_01
L_Toe3_03 L_Toe3_02
planeLockWeightLeft planeAlignerLeft
R_Leg01 R_Hip
R_Leg02 R_Leg01
R_Leg03 R_Leg02
R_Foot R_Leg03
planeAlignerRight R_Foot
R_Toe1_01 R_Foot
R_Toe2_01 R_Foot
R_Toe3_01 R_Foot
planeLockWeightRight planeAlignerRight
R_Toe1_02 R_Toe1_01
R_Toe1_03 R_Toe1_02
R_Toe2_02 R_Toe2_01
R_Toe2_03 R_Toe2_02
R_Toe3_02 R_Toe3_01
R_Toe3_03 R_Toe3_02
Rear_Leg02 Rear_Leg01
Rear_Leg03 Rear_Leg02
Rear_Leg04 Rear_Leg03
Rear_Foot Rear_Leg04
planeAlignerCenter Rear_Foot
Rear_Toe1_01 Rear_Foot
Rear_Toe2_01 Rear_Foot
Rear_Toe3_01 Rear_Foot
planeLockWeightCenter planeAlignerCenter
Rear_Toe1_02 Rear_Toe1_01
Rear_Toe1_03 Rear_Toe1_02
Rear_Toe2_02 Rear_Toe2_01
Rear_Toe2_03 Rear_Toe2_02
Rear_Toe3_02 Rear_Toe3_01
Rear_Toe3_03 Rear_Toe3_02
Back_Bone Spine1
Head Spine1
Motor_Bone Back_Bone
Ping_Mechanism Back_Bone
BN_LookIK Head
bottomMouth Head
L_Mouth01 Head
L_mouthFront Head
mouthGun Head
R_Mouth01 Head
R_mouthFront Head
TopMouth Head
weapon_bone Head
[BasePosition]
#SegmentName Tx, Ty, Tz, Rx, Ry, Rz, BoneLength
Pinger_Root 0.000000 0.000000 0.000000 -90.000000 0.000000 0.000000 10.000000 
Pelvis 0.000000 0.000000 0.000000 0.000000 0.000000 0.000000 10.000000 
L_Hip 0.000000 0.000000 0.000000 0.000000 0.000000 0.000000 10.000000 
R_Hip 0.000000 0.000000 0.000000 0.000000 0.000000 0.000000 10.000000 
Rear_Leg01 0.000000 0.000000 0.000000 0.000000 0.000000 0.000000 10.000000 
Spine1 0.000000 0.000000 0.000000 0.000000 0.000000 0.000000 10.000000 
L_Leg01 0.000000 0.000000 0.000000 0.000000 0.000000 0.000000 10.000000 
L_Leg02 0.000000 0.000000 0.000000 0.000000 0.000000 0.000000 10.000000 
L_Leg03 0.000000 0.000000 0.000000 0.000000 0.000000 0.000000 10.000000 
L_Foot 0.000000 0.000000 0.000000 0.000000 0.000000 0.000000 10.000000 
L_Toe1_01 0.000000 0.000000 0.000000 0.000000 0.000000 0.000000 10.000000 
L_Toe2_01 0.000000 0.000000 0.000000 0.000000 0.000000 0.000000 10.000000 
L_Toe3_01 0.000000 0.000000 0.000000 0.000000 0.000000 0.000000 10.000000 
planeAlignerLeft 0.000000 0.000000 0.000000 0.000000 0.000000 0.000000 10.000000 
L_Toe1_02 0.000000 0.000000 0.000000 0.000000 0.000000 0.000000 10.000000 
L_Toe1_03 0.000000 0.000000 0.000000 0.000000 0.000000 0.000000 10.000000 
L_Toe2_02 0.000000 0.000000 0.000000 0.000000 0.000000 0.000000 10.000000 
L_Toe2_03 0.000000 0.000000 0.000000 0.000000 0.000000 0.000000 10.000000 
L_Toe3_02 0.000000 0.000000 0.000000 0.000000 0.000000 0.000000 10.000000 
L_Toe3_03 0.000000 0.000000 0.000000 0.000000 0.000000 0.000000 10.000000 
planeLockWeightLeft 0.000000 0.000000 0.000000 0.000000 0.000000 0.000000 10.000000 
R_Leg01 0.000000 0.000000 0.000000 0.000000 0.000000 0.000000 10.000000 
R_Leg02 0.000000 0.000000 0.000000 0.000000 0.000000 0.000000 10.000000 
R_Leg03 0.000000 0.000000 0.000000 0.000000 0.000000 0.000000 10.000000 
R_Foot 0.000000 0.000000 0.000000 0.000000 0.000000 0.000000 10.000000 
planeAlignerRight 0.000000 0.000000 0.000000 0.000000 0.000000 0.000000 10.000000 
R_Toe1_01 0.000000 0.000000 0.000000 0.000000 0.000000 0.000000 10.000000 
R_Toe2_01 0.000000 0.000000 0.000000 0.000000 0.000000 0.000000 10.000000 
R_Toe3_01 0.000000 0.000000 0.000000 0.000000 0.000000 0.000000 10.000000 
planeLockWeightRight 0.000000 0.000000 0.000000 0.000000 0.000000 0.000000 10.000000 
R_Toe1_02 0.000000 0.000000 0.000000 0.000000 0.000000 0.000000 10.000000 
R_Toe1_03 0.000000 0.000000 0.000000 0.000000 0.000000 0.000000 10.000000 
R_Toe2_02 0.000000 0.000000 0.000000 0.000000 0.000000 0.000000 10.000000 
R_Toe2_03 0.000000 0.000000 0.000000 0.000000 0.000000 0.000000 10.000000 
R_Toe3_02 0.000000 0.000000 0.000000 0.000000 0.000000 0.000000 10.000000 
R_Toe3_03 0.000000 0.000000 0.000000 0.000000 0.000000 0.000000 10.000000 
Rear_Leg02 0.000000 0.000000 0.000000 0.000000 0.000000 0.000000 10.000000 
Rear_Leg03 0.000000 0.000000 0.000000 0.000000 0.000000 0.000000 10.000000 
Rear_Leg04 0.000000 0.000000 0.000000 0.000000 0.000000 0.000000 10.000000 
Rear_Foot 0.000000 0.000000 0.000000 0.000000 0.000000 0.000000 10.000000 
planeAlignerCenter 0.000000 0.000000 0.000000 0.000000 0.000000 0.000000 10.000000 
Rear_Toe1_01 0.000000 0.000000 0.000000 0.000000 0.000000 0.000000 10.000000 
Rear_Toe2_01 0.000000 0.000000 0.000000 0.000000 0.000000 0.000000 10.000000 
Rear_Toe3_01 0.000000 0.000000 0.000000 0.000000 0.000000 0.000000 10.000000 
planeLockWeightCenter 0.000000 0.000000 0.000000 0.000000 0.000000 0.000000 10.000000 
Rear_Toe1_02 0.000000 0.000000 0.000000 0.000000 0.000000 0.000000 10.000000 
Rear_Toe1_03 0.000000 0.000000 0.000000 0.000000 0.000000 0.000000 10.000000 
Rear_Toe2_02 0.000000 0.000000 0.000000 0.000000 0.000000 0.000000 10.000000 
Rear_Toe2_03 0.000000 0.000000 0.000000 0.000000 0.000000 0.000000 10.000000 
Rear_Toe3_02 0.000000 0.000000 0.000000 0.000000 0.000000 0.000000 10.000000 
Rear_Toe3_03 0.000000 0.000000 0.000000 0.000000 0.000000 0.000000 10.000000 
Back_Bone 0.000000 0.000000 0.000000 0.000000 0.000000 0.000000 10.000000 
Head 0.000000 0.000000 0.000000 0.000000 0.000000 0.000000 10.000000 
Motor_Bone 0.000000 0.000000 0.000000 0.000000 0.000000 0.000000 10.000000 
Ping_Mechanism 0.000000 0.000000 0.000000 0.000000 0.000000 0.000000 10.000000 
BN_LookIK 0.000000 0.000000 0.000000 0.000000 0.000000 0.000000 10.000000 
bottomMouth 0.000000 0.000000 0.000000 0.000000 0.000000 0.000000 10.000000 
L_Mouth01 0.000000 0.000000 0.000000 0.000000 0.000000 0.000000 10.000000 
L_mouthFront 0.000000 0.000000 0.000000 0.000000 0.000000 0.000000 10.000000 
mouthGun 0.000000 0.000000 0.000000 0.000000 0.000000 0.000000 10.000000 
R_Mouth01 0.000000 0.000000 0.000000 0.000000 0.000000 0.000000 10.000000 
R_mouthFront 0.000000 0.000000 0.000000 0.000000 0.000000 0.000000 10.000000 
TopMouth 0.000000 0.000000 0.000000 0.000000 0.000000 0.000000 10.000000 
weapon_bone 0.000000 0.000000 0.000000 0.000000 0.000000 0.000000 10.000000 
#Beginning of Data. Separated by tabs
#Fr	Tx	Ty	Tz	Rx	Ry	Rz	SF
[Pinger_Root]
3 0.000000 0.000000 0.000000 -0.000075 -0.000000 -0.000020 0.000000
4 0.000000 0.000000 0.000000 -0.000075 -0.000000 -0.000020 0.000000
5 0.000000 0.000000 0.000000 -0.000075 -0.000000 -0.000020 0.000000
[Pelvis]
3 295.366028 669.339905 4441.835449 -67.593437 -85.415207 53.278900 4501.684082
4 247.764709 691.575317 4453.323242 -48.380917 -83.915047 27.557655 4513.507813
5 191.330215 717.936951 4468.811035 -37.875126 -81.965836 10.089464 4530.155762
[L_Hip]
3 5.766392 125.831482 872.656799 160.057358 -46.480122 121.856003 881.701050
4 5.766392 125.831482 872.656799 159.951218 -47.651276 121.319389 881.701050
5 5.766392 125.831482 872.656799 159.836182 -49.371071 120.540207 881.701050
[R_Hip]
3 5.765438 125.836372 -872.654907 38.038586 50.731987 125.544250 881.699829
4 5.765438 125.836372 -872.654907 37.935951 51.988495 125.315819 881.699829
5 5.765438 125.836372 -872.654907 37.821976 53.244736 125.077011 881.699829
[Rear_Leg01]
3 -192.298416 -925.602966 -0.001907 -165.182724 -2.263289 -154.549988 945.367432
4 -192.298416 -925.602966 -0.001907 -151.864380 -7.564612 -149.311325 945.367432
5 -192.298416 -925.602966 -0.001907 -145.186783 -7.872146 -146.650833 945.367432
[Spine1]
3 290.604584 5.007505 0.000477 12.184751 -5.512929 18.987589 290.647736
4 290.604584 5.007505 0.000477 16.964790 -10.174689 18.556379 290.647736
5 290.604584 5.007505 0.000477 22.115200 -15.015187 17.896936 290.647736
[L_Leg01]
3 761.932007 -0.002384 -0.069261 24.645561 -9.404114 -17.999321 761.932068
4 761.932007 -0.002384 -0.069261 24.861376 -6.396716 -24.609589 761.932068
5 761.932007 -0.002384 -0.069261 25.605656 -3.520871 -33.062840 761.932068
[L_Leg02]
3 1441.140503 -0.000954 -0.000715 1.019729 -0.122332 -113.930984 1441.140503
4 1441.140503 -0.000954 -0.000715 0.760794 -0.106764 -111.555946 1441.140503
5 1441.140503 -0.000954 -0.000715 0.318273 -0.045933 -107.297157 1441.140503
[L_Leg03]
3 1686.963989 -0.000715 -0.000954 -0.020777 0.008382 115.981873 1686.963989
4 1686.963989 -0.000715 -0.000954 -0.017414 0.007495 115.317490 1686.963989
5 1686.963989 -0.000715 -0.000954 -0.014041 0.006647 114.653084 1686.963989
[L_Foot]
3 3041.570068 -30.715107 11.297464 -3.377416 16.984100 48.590546 3041.746094
4 3041.570068 -30.715107 11.297464 -5.384858 21.222214 49.797485 3041.746094
5 3041.570068 -30.715107 11.297464 -7.564716 26.410988 50.302990 3041.746094
[L_Toe1_01]
3 -188.216690 -224.732346 -21.137953 94.079842 -6.862822 -171.970108 293.899567
4 -188.216690 -224.732346 -21.137953 94.260193 -6.862978 -171.969940 293.899567
5 -188.216690 -224.732346 -21.137953 94.757561 -6.862341 -171.970032 293.899567
[L_Toe2_01]
3 200.746536 -219.926590 148.838394 -89.772385 -26.236687 -52.675076 332.896027
4 200.746536 -219.926590 148.838394 -89.646622 -26.199173 -52.673653 332.896027
5 200.746536 -219.926590 148.838394 -89.520920 -26.161676 -52.672153 332.896027
[L_Toe3_01]
3 188.832520 -219.859131 -191.078659 -100.227478 13.731560 -67.653084 347.140900
4 188.832520 -219.859131 -191.078659 -100.904381 13.559409 -67.620262 347.140900
5 188.832520 -219.859131 -191.078659 -101.580933 13.387633 -67.585373 347.140900
[planeAlignerLeft]
3 32.990288 -593.019653 101.087463 169.306686 -76.298271 89.968506 602.477661
4 32.990376 -593.019592 101.087608 169.306686 -76.298271 89.968506 602.477661
5 32.990459 -593.019592 101.087753 169.306686 -76.298256 89.968483 602.477722
[L_Toe1_02]
3 413.761139 0.000477 0.000000 0.001384 -25.991367 0.001384 413.761139
4 413.761139 0.000477 0.000000 0.001384 -25.980581 0.001384 413.761139
5 413.761139 0.000477 0.000000 0.001384 -25.969795 0.001384 413.761139
[L_Toe1_03]
3 464.317322 0.000358 -0.000089 0.003734 53.359097 0.003734 464.317322
4 464.317322 0.000358 -0.000089 0.003734 53.359097 0.003734 464.317322
5 464.317322 0.000358 -0.000089 0.003734 53.359097 0.003734 464.317322
[L_Toe2_02]
3 342.235809 -0.000477 0.000238 0.001188 -72.402016 0.001188 342.235809
4 342.235809 -0.000477 0.000238 0.001188 -72.402016 0.001188 342.235809
5 342.235809 -0.000477 0.000238 0.001188 -72.402016 0.001188 342.235809
[L_Toe2_03]
3 420.210846 -0.000715 0.000000 0.029090 85.375511 0.029090 420.210846
4 420.210846 -0.000715 0.000000 0.029090 85.375565 0.029090 420.210846
5 420.210846 -0.000715 0.000000 0.029090 85.375511 0.029090 420.210846
[L_Toe3_02]
3 329.270111 0.000954 0.000000 0.001178 -80.480331 0.001178 329.270111
4 329.270111 0.000954 0.000000 0.001178 -80.480354 0.001178 329.270111
5 329.270111 0.000954 0.000000 0.001178 -80.480331 0.001178 329.270111
[L_Toe3_03]
3 439.137451 -0.001907 0.000954 -179.995956 78.605698 -179.992447 439.137451
4 439.137451 -0.001907 0.000954 -179.995956 78.605698 -179.992447 439.137451
5 439.137451 -0.001907 0.000954 -179.995956 78.605698 -179.992447 439.137451
[planeLockWeightLeft]
3 1000.000244 0.000203 -0.000262 -0.011826 -0.004376 0.005620 1000.000244
4 1000.000244 0.000153 -0.000284 -0.011826 -0.004376 0.005620 1000.000244
5 1000.000366 0.000102 -0.000305 -0.011826 -0.004376 0.005620 1000.000366
[R_Leg01]
3 761.455627 -0.001907 -0.000358 115.030083 -17.951735 37.799049 761.455688
4 761.455627 -0.001907 -0.000358 109.090065 -27.067326 36.735985 761.455688
5 761.455627 -0.001907 -0.000358 102.007599 -36.408649 37.999348 761.455688
[R_Leg02]
3 1441.140625 0.000000 -0.000238 -1.218137 -0.134842 -116.178459 1441.140625
4 1441.140625 0.000000 -0.000238 -1.446269 -0.204901 -123.291023 1441.140625
5 1441.140625 0.000000 -0.000238 -1.575901 -0.226970 -128.252151 1441.140625
[R_Leg03]
3 1686.963989 0.000954 0.001431 0.074268 -0.038038 129.796494 1686.963989
4 1686.963989 0.000954 0.001431 0.074037 -0.038486 130.489120 1686.963989
5 1686.963989 0.000954 0.001431 0.074157 -0.038254 130.129410 1686.963989
[R_Foot]
3 3041.560059 -30.531288 -11.204481 -5.984247 -24.358191 51.136765 3041.734131
4 3041.560059 -30.531288 -11.204481 -6.008105 -23.881315 50.611969 3041.734131
5 3041.560059 -30.531288 -11.204481 -5.567483 -23.283604 49.112228 3041.734131
[planeAlignerRight]
3 -109.101860 -502.298065 -291.743988 -36.577137 -71.339012 -64.343925 591.033936
4 -104.952995 -597.424744 -281.017426 -36.577137 -71.339012 -64.343925 668.507507
5 -100.804138 -692.551453 -270.290833 -36.577137 -71.339012 -64.343925 750.230652
[R_Toe1_01]
3 -188.383347 -224.864899 21.052242 76.987007 -2.009760 -178.484665 294.101532
4 -188.383347 -224.864899 21.052242 76.695793 -2.316218 -172.610580 294.101532
5 -188.383347 -224.864899 21.052242 76.409096 -2.419315 -166.127106 294.101532
[R_Toe2_01]
3 200.637817 -220.002121 -148.787384 -89.124542 33.304955 -53.685772 332.857574
4 200.637817 -220.002121 -148.787384 -91.594658 30.482384 -59.161930 332.857574
5 200.637817 -220.002121 -148.787384 -93.376709 27.711756 -63.137478 332.857574
[R_Toe3_01]
3 188.606735 -220.092957 191.126343 -72.563889 -10.506753 -69.002708 347.192566
4 188.606735 -220.092957 191.126343 -72.093468 -9.095504 -74.519157 347.192566
5 188.606735 -220.092957 191.126343 -71.932831 -8.351176 -77.723335 347.192566
[planeLockWeightRight]
3 999.999878 0.000458 -0.000553 -0.011823 -0.004379 -0.000027 999.999878
4 999.999939 0.000534 -0.000625 -0.011823 -0.004379 -0.000027 999.999939
5 1000.000000 0.000610 -0.000696 -0.011823 -0.004379 -0.000027 1000.000000
[R_Toe1_02]
3 413.762085 0.000477 -0.000119 0.001403 -23.587318 0.001403 413.762085
4 413.762085 0.000477 -0.000119 0.001398 -24.237329 0.001398 413.762085
5 413.762085 0.000477 -0.000119 0.001392 -24.887337 0.001392 413.762085
[R_Toe1_03]
3 464.317810 0.000000 0.001088 0.009402 75.658051 0.009402 464.317810
4 464.317810 0.000000 0.001088 0.007873 72.854202 0.007873 464.317810
5 464.317810 0.000000 0.001088 0.006162 68.040756 0.006162 464.317810
[R_Toe2_02]
3 342.234741 -0.000954 0.000238 0.001191 -70.531525 0.001191 342.234741
4 342.234741 -0.000954 0.000238 0.001200 -65.919670 0.001200 342.234741
5 342.234741 -0.000954 0.000238 0.001218 -58.915943 0.001218 342.234741
[R_Toe2_03]
3 420.210846 0.000715 -0.000268 0.014690 80.834984 0.014690 420.210846
4 420.210846 0.000715 -0.000268 -0.005266 71.063431 -0.001721 420.210846
5 420.210846 0.000715 -0.000268 -0.003974 59.141426 -0.000347 420.210846
[R_Toe3_02]
3 329.270355 -0.000477 -0.000954 0.001181 -77.322609 0.001181 329.270355
4 329.270355 -0.000477 -0.000954 0.001190 -71.126244 0.001190 329.270355
5 329.270355 -0.000477 -0.000954 -0.002399 -61.005722 -0.002399 329.270355
[R_Toe3_03]
3 439.137939 0.000238 0.001431 -179.921219 89.181473 -179.917725 439.137939
4 439.137939 0.000238 0.001431 0.009467 75.758255 0.009467 439.137939
5 439.137939 0.000238 0.001431 0.004287 58.222309 0.004287 439.137939
[Rear_Leg02]
3 1162.777710 -0.029802 0.005960 25.427753 -17.243013 -149.970047 1162.777710
4 1162.777710 -0.029802 0.005960 37.362179 -21.818556 -139.933899 1162.777710
5 1162.777710 -0.029802 0.005960 33.022305 -23.652998 -126.627777 1162.777710
[Rear_Leg03]
3 607.192505 -0.013351 -0.073195 0.010054 -0.005923 77.358574 607.192505
4 607.192505 -0.013351 -0.073195 0.010028 -0.005966 77.853577 607.192505
5 607.192505 -0.013351 -0.073195 0.010078 -0.005882 76.893723 607.192505
[Rear_Leg04]
3 995.874512 -0.020504 -0.011921 -0.043254 -0.017141 90.921829 995.874573
4 995.874512 -0.020504 -0.011921 -0.043525 -0.016440 92.773697 995.874573
5 995.874512 -0.020504 -0.011921 -0.042939 -0.017915 88.863243 995.874573
[Rear_Foot]
3 3096.176270 -0.067472 -0.041425 -97.938080 60.321766 73.449493 3096.176270
4 3096.176270 -0.067472 -0.041425 -90.046036 47.976173 76.163284 3096.176270
5 3096.176270 -0.067472 -0.041425 -83.182953 50.030224 81.682327 3096.176270
[planeAlignerCenter]
3 -72.746803 -12.182312 -837.132446 12.240772 -0.001473 179.998184 840.375671
4 34.148903 -14.731140 -829.101257 12.240769 -0.001473 179.998184 829.934998
5 91.688766 -15.842285 -809.661560 12.240772 -0.001473 179.998184 814.990601
[Rear_Toe1_01]
3 0.653352 83.966492 -371.173737 3.340310 45.720203 95.220047 380.553192
4 0.653352 83.966492 -371.173737 -1.059357 45.296219 88.236191 380.553192
5 0.653352 83.966492 -371.173737 -3.316187 44.171524 84.552391 380.553192
[Rear_Toe2_01]
3 178.200760 -294.826019 -362.060547 -7.843630 37.790432 -70.358299 499.765686
4 178.200760 -294.826019 -362.060547 -6.058071 36.497013 -64.288338 499.765686
5 178.200760 -294.826019 -362.060547 -5.280185 34.809875 -61.211468 499.765686
[Rear_Toe3_01]
3 -153.359680 -308.780914 -362.060852 2.109038 34.965206 -116.418678 499.952881
4 -153.359680 -308.780914 -362.060852 3.641074 36.221630 -110.660408 499.952881
5 -153.359680 -308.780914 -362.060852 4.523711 35.737080 -107.408424 499.952881
[planeLockWeightCenter]
3 0.000000 0.000305 0.000019 -0.011814 -0.004373 -0.000015 0.000306
4 500.000061 0.000458 -0.000105 -0.011814 -0.004373 -0.000015 500.000061
5 1000.000122 0.000610 -0.000229 -0.011814 -0.004373 -0.000015 1000.000122
[Rear_Toe1_02]
3 379.707825 0.194073 0.000477 0.002681 -28.643887 0.009535 379.707855
4 379.707825 0.194073 0.000477 0.001271 -29.377846 0.008199 379.707855
5 379.707825 0.194073 0.000477 -0.000131 -30.111771 0.006875 379.707855
[Rear_Toe1_03]
3 500.129700 0.165701 0.000119 0.000450 40.475060 0.010723 500.129761
4 500.129700 0.165701 0.000119 -0.000071 42.742157 0.008838 500.129761
5 500.129700 0.165701 0.000119 -0.000717 45.008350 0.006852 500.129761
[Rear_Toe2_02]
3 340.494507 0.000238 -0.000954 0.001189 -71.387894 0.001189 340.494507
4 340.494507 0.000238 -0.000954 0.001201 -65.531067 0.001201 340.494507
5 340.494507 0.000238 -0.000954 0.001209 -62.157181 0.001209 340.494507
[Rear_Toe2_03]
3 433.103577 0.000000 0.000238 0.007593 72.216248 0.007593 433.103546
4 433.103577 0.000000 0.000238 0.005120 63.499763 0.005120 433.103546
5 433.103577 0.000000 0.000238 0.004380 58.914089 0.004380 433.103546
[Rear_Toe3_02]
3 340.494141 -0.000358 -0.000477 -0.002408 -59.490463 -0.002408 340.494171
4 340.494141 -0.000358 -0.000477 0.008193 -67.025391 -0.009365 340.494171
5 340.494141 -0.000358 -0.000477 0.001190 -70.676987 0.001190 340.494171
[Rear_Toe3_03]
3 433.103577 0.001431 -0.000238 -0.000104 55.444382 -0.003766 433.103546
4 433.103577 0.001431 -0.000238 -0.000929 65.582062 -0.004506 433.103546
5 433.103577 0.001431 -0.000238 0.007141 71.081711 0.007141 433.103546
[Back_Bone]
3 1312.175781 -701.934692 0.000954 1.247663 0.102761 -85.509262 1488.125488
4 1312.175781 -701.934692 0.000954 1.133070 0.153433 -85.459633 1488.125488
5 1312.175781 -701.934692 0.000954 1.018520 0.204203 -85.410080 1488.125488
[Head]
3 1406.159424 809.709290 0.001431 0.351104 -1.565733 7.609723 1622.625488
4 1406.159424 809.709290 0.001431 0.526443 -1.610424 7.530361 1622.625488
5 1406.159424 809.709290 0.001431 0.701847 -1.654872 7.450861 1622.625488
[Motor_Bone]
3 1158.364380 -417.834747 0.000477 -0.238525 0.080502 -105.910851 1231.419434
4 1158.364380 -417.834747 0.000477 -0.310095 0.082705 -105.908417 1231.419434
5 1158.364380 -417.834747 0.000477 -0.381665 0.084912 -105.905983 1231.419434
[Ping_Mechanism]
3 1232.206787 -440.884369 14.897689 0.000103 -0.000053 82.120995 1308.791382
4 1227.709473 -437.575043 28.320961 0.000103 -0.000053 82.120995 1303.665894
5 1223.212280 -434.265747 41.744232 0.000103 -0.000053 82.120995 1298.682983
[BN_LookIK]
3 193.241119 1380.371704 -0.002861 0.000000 89.965736 -31.038179 1393.832153
4 193.241119 1380.371704 -0.002861 0.000000 89.965736 -31.038179 1393.832153
5 193.241119 1380.371704 -0.002861 0.000000 89.965736 -31.038179 1393.832153
[bottomMouth]
3 -435.092926 615.759399 -0.000954 -0.000022 0.000016 73.527184 753.966492
4 -435.092926 615.759399 -0.000954 -0.000022 0.000016 73.527184 753.966492
5 -435.092926 615.759399 -0.000954 -0.000022 0.000016 73.527184 753.966492
[L_Mouth01]
3 554.440979 7.658243 838.222046 150.204178 23.759130 109.605339 1005.027161
4 554.440979 7.658243 838.222046 150.204178 23.759130 109.605339 1005.027161
5 554.440979 7.658243 838.222046 150.204178 23.759130 109.605339 1005.027161
[L_mouthFront]
3 551.629089 934.514771 339.150421 0.000081 2.804060 79.119301 1136.941284
4 551.629089 934.514771 339.150421 0.000081 2.804060 79.119301 1136.941284
5 551.629089 934.514771 339.150421 0.000081 2.804060 79.119301 1136.941284
[mouthGun]
3 55.332661 1627.420898 0.000000 0.000023 0.000009 -11.038128 1628.361328
4 55.332661 1627.420898 0.000000 0.000023 0.000009 -11.038128 1628.361328
5 55.332661 1627.420898 0.000000 0.000023 0.000009 -11.038128 1628.361328
[R_Mouth01]
3 554.442383 7.659197 -838.223938 29.795891 -23.759109 109.605331 1005.029541
4 554.442383 7.659197 -838.223938 29.795891 -23.759109 109.605331 1005.029541
5 554.442383 7.659197 -838.223938 29.795891 -23.759109 109.605331 1005.029541
[R_mouthFront]
3 551.629089 934.514282 -339.151367 0.000029 -2.803930 79.119133 1136.941162
4 551.629089 934.514282 -339.151367 0.000029 -2.803930 79.119133 1136.941162
5 551.629089 934.514282 -339.151367 0.000029 -2.803930 79.119133 1136.941162
[TopMouth]
3 461.269867 -56.106091 -0.008583 -0.000059 -0.000268 92.025169 464.669525
4 461.269867 -56.106091 -0.008583 -0.000059 -0.000268 92.025169 464.669525
5 461.269867 -56.106091 -0.008583 -0.000059 -0.000268 92.025169 464.669525
[weapon_bone]
3 -987.239868 1448.372803 0.001431 0.000000 89.965736 -31.038221 1752.833740
4 -987.239868 1448.372803 0.001431 0.000000 89.965736 -31.038221 1752.833740
5 -987.239868 1448.372803 0.001431 0.000000 89.965736 -31.038221 1752.833740
